<mxfile host="65bd71144e">
    <diagram id="f3CosA6povK-PhNf1Wju" name="Page-1">
        <mxGraphModel dx="1001" dy="1792" grid="1" gridSize="10" guides="1" tooltips="1" connect="1" arrows="1" fold="1" page="0" pageScale="1" pageWidth="1169" pageHeight="827" math="0" shadow="0">
            <root>
                <mxCell id="0"/>
                <mxCell id="1" parent="0"/>
                <mxCell id="192" value="" style="rounded=0;whiteSpace=wrap;html=1;shadow=0;glass=0;sketch=0;fillStyle=auto;strokeColor=default;strokeWidth=2;fontSize=14;fillColor=default;" vertex="1" parent="1">
                    <mxGeometry x="40" y="-800" width="880" height="760" as="geometry"/>
                </mxCell>
                <mxCell id="86" value="" style="rounded=0;whiteSpace=wrap;html=1;fillStyle=auto;fillColor=#e1d5e7;strokeColor=#9673a6;strokeWidth=2;perimeterSpacing=0;glass=0;shadow=0;" vertex="1" parent="1">
                    <mxGeometry x="80" y="-740" width="260" height="460" as="geometry"/>
                </mxCell>
                <mxCell id="94" style="edgeStyle=orthogonalEdgeStyle;html=1;exitX=0.5;exitY=1;exitDx=0;exitDy=0;entryX=0.5;entryY=0;entryDx=0;entryDy=0;endArrow=none;endFill=0;targetPerimeterSpacing=0;rounded=0;startArrow=none;" edge="1" parent="1" source="98">
                    <mxGeometry relative="1" as="geometry">
                        <mxPoint x="140" y="-660" as="targetPoint"/>
                    </mxGeometry>
                </mxCell>
                <mxCell id="93" value="RJ45" style="rounded=0;whiteSpace=wrap;html=1;fillColor=#f8cecc;strokeColor=#b85450;fontSize=10;align=center;verticalAlign=top;" vertex="1" parent="1">
                    <mxGeometry x="120" y="-740" width="40" height="40" as="geometry"/>
                </mxCell>
                <mxCell id="95" value="USB-C" style="rounded=0;whiteSpace=wrap;html=1;fillColor=#f8cecc;strokeColor=#b85450;fontSize=10;align=center;verticalAlign=top;" vertex="1" parent="1">
                    <mxGeometry x="260" y="-740" width="40" height="40" as="geometry"/>
                </mxCell>
                <mxCell id="99" style="edgeStyle=orthogonalEdgeStyle;rounded=0;html=1;exitX=0.5;exitY=0;exitDx=0;exitDy=0;entryX=0.5;entryY=1;entryDx=0;entryDy=0;fontSize=10;endArrow=none;endFill=0;targetPerimeterSpacing=0;" edge="1" parent="1" source="96" target="95">
                    <mxGeometry relative="1" as="geometry">
                        <Array as="points">
                            <mxPoint x="280" y="-680"/>
                            <mxPoint x="280" y="-680"/>
                        </Array>
                    </mxGeometry>
                </mxCell>
                <mxCell id="119" style="edgeStyle=orthogonalEdgeStyle;rounded=0;html=1;exitX=0.25;exitY=1;exitDx=0;exitDy=0;entryX=0.4;entryY=0;entryDx=0;entryDy=0;fontSize=10;endArrow=none;endFill=0;targetPerimeterSpacing=0;entryPerimeter=0;" edge="1" parent="1" source="96" target="87">
                    <mxGeometry relative="1" as="geometry">
                        <Array as="points">
                            <mxPoint x="260" y="-620"/>
                            <mxPoint x="150" y="-620"/>
                            <mxPoint x="150" y="-480"/>
                        </Array>
                    </mxGeometry>
                </mxCell>
                <mxCell id="124" value="SWD" style="edgeLabel;html=1;align=center;verticalAlign=middle;resizable=0;points=[];fontSize=8;" vertex="1" connectable="0" parent="119">
                    <mxGeometry x="-0.8813" y="1" relative="1" as="geometry">
                        <mxPoint x="-1" y="-6" as="offset"/>
                    </mxGeometry>
                </mxCell>
                <mxCell id="123" style="edgeStyle=orthogonalEdgeStyle;rounded=0;html=1;exitX=0.75;exitY=1;exitDx=0;exitDy=0;fontSize=10;endArrow=none;endFill=0;targetPerimeterSpacing=0;entryX=0.6;entryY=0;entryDx=0;entryDy=0;entryPerimeter=0;" edge="1" parent="1" source="96" target="87">
                    <mxGeometry relative="1" as="geometry">
                        <Array as="points">
                            <mxPoint x="300" y="-610"/>
                            <mxPoint x="172" y="-610"/>
                        </Array>
                    </mxGeometry>
                </mxCell>
                <mxCell id="125" value="UART" style="edgeLabel;html=1;align=center;verticalAlign=middle;resizable=0;points=[];fontSize=8;" vertex="1" connectable="0" parent="123">
                    <mxGeometry x="-0.8659" relative="1" as="geometry">
                        <mxPoint y="-9" as="offset"/>
                    </mxGeometry>
                </mxCell>
                <mxCell id="96" value="Debug&lt;br style=&quot;font-size: 10px;&quot;&gt;Probe" style="rounded=0;whiteSpace=wrap;html=1;fillColor=#dae8fc;strokeColor=#6c8ebf;fontSize=10;" vertex="1" parent="1">
                    <mxGeometry x="240" y="-680" width="80" height="40" as="geometry"/>
                </mxCell>
                <mxCell id="97" value="Display&lt;br style=&quot;font-size: 10px;&quot;&gt;128x64" style="rounded=0;whiteSpace=wrap;html=1;fillColor=#dae8fc;strokeColor=#6c8ebf;fontSize=10;" vertex="1" parent="1">
                    <mxGeometry x="240" y="-540" width="80" height="40" as="geometry"/>
                </mxCell>
                <mxCell id="100" value="" style="group" vertex="1" connectable="0" parent="1">
                    <mxGeometry x="100" y="-480" width="120" height="120" as="geometry"/>
                </mxCell>
                <mxCell id="87" value="RP2350&lt;br&gt;Stamp XL" style="rounded=0;whiteSpace=wrap;html=1;fillColor=#dae8fc;strokeColor=#6c8ebf;verticalAlign=top;fontStyle=1;points=[[0,0,0,0,0],[0,0.25,0,0,0],[0,0.5,0,0,0],[0,0.75,0,0,0],[0,1,0,0,0],[0.2,0,0,0,0],[0.25,1,0,0,0],[0.4,0,0,0,0],[0.5,1,0,0,0],[0.6,0,0,0,0],[0.75,1,0,0,0],[0.8,0,0,0,0],[1,0,0,0,0],[1,0.25,0,0,0],[1,0.5,0,0,0],[1,0.75,0,0,0],[1,1,0,0,0]];" vertex="1" parent="100">
                    <mxGeometry width="120" height="120" as="geometry"/>
                </mxCell>
                <mxCell id="88" value="16 MB&lt;br&gt;Flash" style="rounded=0;whiteSpace=wrap;html=1;fillColor=#dae8fc;strokeColor=#6c8ebf;" vertex="1" parent="100">
                    <mxGeometry x="30" y="51.42857142857142" width="60" height="25.71428571428571" as="geometry"/>
                </mxCell>
                <mxCell id="89" value="16 MB&lt;br&gt;RAM" style="rounded=0;whiteSpace=wrap;html=1;fillColor=#dae8fc;strokeColor=#6c8ebf;" vertex="1" parent="100">
                    <mxGeometry x="30" y="85.71428571428571" width="60" height="25.71428571428571" as="geometry"/>
                </mxCell>
                <mxCell id="104" value="RTC" style="rounded=0;whiteSpace=wrap;html=1;fillColor=#dae8fc;strokeColor=#6c8ebf;fontSize=10;" vertex="1" parent="1">
                    <mxGeometry x="240" y="-600" width="80" height="40" as="geometry"/>
                </mxCell>
                <mxCell id="108" style="edgeStyle=orthogonalEdgeStyle;rounded=0;html=1;exitX=0;exitY=0.5;exitDx=0;exitDy=0;entryX=1;entryY=0.75;entryDx=0;entryDy=0;fontSize=10;endArrow=none;endFill=0;targetPerimeterSpacing=0;" edge="1" parent="1" source="105" target="87">
                    <mxGeometry relative="1" as="geometry"/>
                </mxCell>
                <mxCell id="112" style="edgeStyle=orthogonalEdgeStyle;rounded=0;html=1;exitX=0.25;exitY=1;exitDx=0;exitDy=0;entryX=0.67;entryY=0;entryDx=0;entryDy=0;fontSize=10;endArrow=none;endFill=0;targetPerimeterSpacing=0;entryPerimeter=0;" edge="1" parent="1" source="105" target="111">
                    <mxGeometry relative="1" as="geometry">
                        <Array as="points">
                            <mxPoint x="260" y="-340"/>
                            <mxPoint x="237" y="-340"/>
                            <mxPoint x="237" y="-300"/>
                        </Array>
                    </mxGeometry>
                </mxCell>
                <mxCell id="113" style="edgeStyle=orthogonalEdgeStyle;rounded=0;html=1;exitX=0.75;exitY=1;exitDx=0;exitDy=0;entryX=0.83;entryY=0;entryDx=0;entryDy=0;fontSize=10;endArrow=none;endFill=0;targetPerimeterSpacing=0;entryPerimeter=0;" edge="1" parent="1" source="105" target="111">
                    <mxGeometry relative="1" as="geometry">
                        <Array as="points">
                            <mxPoint x="300" y="-320"/>
                            <mxPoint x="263" y="-320"/>
                            <mxPoint x="263" y="-300"/>
                        </Array>
                    </mxGeometry>
                </mxCell>
                <mxCell id="116" style="edgeStyle=orthogonalEdgeStyle;rounded=0;html=1;exitX=0.75;exitY=0;exitDx=0;exitDy=0;entryX=0.5;entryY=1;entryDx=0;entryDy=0;fontSize=10;endArrow=none;endFill=0;targetPerimeterSpacing=0;" edge="1" parent="1" source="105" target="114">
                    <mxGeometry relative="1" as="geometry"/>
                </mxCell>
                <mxCell id="105" value="USB Hub" style="rounded=0;whiteSpace=wrap;html=1;fillColor=#dae8fc;strokeColor=#6c8ebf;fontSize=10;" vertex="1" parent="1">
                    <mxGeometry x="240" y="-410" width="80" height="40" as="geometry"/>
                </mxCell>
                <mxCell id="106" value="" style="edgeStyle=orthogonalEdgeStyle;html=1;exitX=0.5;exitY=1;exitDx=0;exitDy=0;entryX=0.5;entryY=0;entryDx=0;entryDy=0;endArrow=none;endFill=0;rounded=0;" edge="1" parent="1" source="93" target="98">
                    <mxGeometry relative="1" as="geometry">
                        <mxPoint x="140" y="-700" as="sourcePoint"/>
                        <mxPoint x="140" y="-660" as="targetPoint"/>
                    </mxGeometry>
                </mxCell>
                <mxCell id="118" style="edgeStyle=orthogonalEdgeStyle;rounded=0;html=1;exitX=0.5;exitY=1;exitDx=0;exitDy=0;entryX=0.2;entryY=0;entryDx=0;entryDy=0;fontSize=10;endArrow=none;endFill=0;targetPerimeterSpacing=0;entryPerimeter=0;" edge="1" parent="1" source="98" target="87">
                    <mxGeometry relative="1" as="geometry">
                        <Array as="points">
                            <mxPoint x="140" y="-620"/>
                            <mxPoint x="124" y="-620"/>
                        </Array>
                    </mxGeometry>
                </mxCell>
                <mxCell id="128" value="SPI" style="edgeLabel;html=1;align=center;verticalAlign=middle;resizable=0;points=[];fontSize=8;" vertex="1" connectable="0" parent="118">
                    <mxGeometry x="-0.822" y="1" relative="1" as="geometry">
                        <mxPoint x="-1" y="-6" as="offset"/>
                    </mxGeometry>
                </mxCell>
                <mxCell id="98" value="ENC624J600" style="rounded=0;whiteSpace=wrap;html=1;fillColor=#dae8fc;strokeColor=#6c8ebf;fontSize=10;" vertex="1" parent="1">
                    <mxGeometry x="100" y="-680" width="80" height="40" as="geometry"/>
                </mxCell>
                <mxCell id="107" style="edgeStyle=orthogonalEdgeStyle;rounded=0;html=1;exitX=0.75;exitY=1;exitDx=0;exitDy=0;fontSize=10;endArrow=none;endFill=0;targetPerimeterSpacing=0;exitPerimeter=0;entryX=0.5;entryY=0;entryDx=0;entryDy=0;entryPerimeter=0;" edge="1" parent="1" source="87" target="111">
                    <mxGeometry relative="1" as="geometry">
                        <mxPoint x="170" y="-300" as="targetPoint"/>
                        <Array as="points">
                            <mxPoint x="190" y="-330"/>
                            <mxPoint x="210" y="-330"/>
                        </Array>
                    </mxGeometry>
                </mxCell>
                <mxCell id="132" style="edgeStyle=orthogonalEdgeStyle;rounded=0;html=1;exitX=0.5;exitY=1;exitDx=0;exitDy=0;entryX=0.5;entryY=0;entryDx=0;entryDy=0;fontSize=8;endArrow=none;endFill=0;targetPerimeterSpacing=0;strokeWidth=4;" edge="1" parent="1" source="111" target="131">
                    <mxGeometry relative="1" as="geometry">
                        <Array as="points">
                            <mxPoint x="210" y="-260"/>
                            <mxPoint x="210" y="-260"/>
                        </Array>
                    </mxGeometry>
                </mxCell>
                <mxCell id="111" value="Main Connector" style="rounded=0;whiteSpace=wrap;html=1;fillColor=#f8cecc;strokeColor=#b85450;fontSize=10;align=center;verticalAlign=bottom;points=[[0,0,0,0,0],[0,0.25,0,0,0],[0,0.5,0,0,0],[0,0.75,0,0,0],[0,1,0,0,0],[0.17,0,0,0,0],[0.25,1,0,0,0],[0.33,0,0,0,0],[0.5,0,0,0,0],[0.5,1,0,0,0],[0.67,0,0,0,0],[0.75,1,0,0,0],[0.83,0,0,0,0],[1,0,0,0,0],[1,0.25,0,0,0],[1,0.5,0,0,0],[1,0.75,0,0,0],[1,1,0,0,0]];" vertex="1" parent="1">
                    <mxGeometry x="130" y="-300" width="160" height="20" as="geometry"/>
                </mxCell>
                <mxCell id="114" value="USB-A" style="rounded=0;whiteSpace=wrap;html=1;fillColor=#f8cecc;strokeColor=#b85450;fontSize=10;align=center;" vertex="1" parent="1">
                    <mxGeometry x="280" y="-480" width="40" height="40" as="geometry"/>
                </mxCell>
                <mxCell id="120" style="edgeStyle=orthogonalEdgeStyle;rounded=0;html=1;exitX=0.5;exitY=1;exitDx=0;exitDy=0;entryX=0.25;entryY=0;entryDx=0;entryDy=0;fontSize=10;endArrow=none;endFill=0;targetPerimeterSpacing=0;" edge="1" parent="1" source="115" target="105">
                    <mxGeometry relative="1" as="geometry"/>
                </mxCell>
                <mxCell id="115" value="USB-A" style="rounded=0;whiteSpace=wrap;html=1;fillColor=#f8cecc;strokeColor=#b85450;fontSize=10;align=center;" vertex="1" parent="1">
                    <mxGeometry x="240" y="-480" width="40" height="40" as="geometry"/>
                </mxCell>
                <mxCell id="121" style="edgeStyle=orthogonalEdgeStyle;rounded=0;html=1;exitX=0.8;exitY=0;exitDx=0;exitDy=0;entryX=0;entryY=0.5;entryDx=0;entryDy=0;fontSize=10;endArrow=none;endFill=0;targetPerimeterSpacing=0;exitPerimeter=0;" edge="1" parent="1" source="87" target="97">
                    <mxGeometry relative="1" as="geometry"/>
                </mxCell>
                <mxCell id="122" style="edgeStyle=orthogonalEdgeStyle;rounded=0;html=1;exitX=0.8;exitY=0;exitDx=0;exitDy=0;entryX=0;entryY=0.5;entryDx=0;entryDy=0;fontSize=10;endArrow=none;endFill=0;targetPerimeterSpacing=0;exitPerimeter=0;" edge="1" parent="1" source="87" target="104">
                    <mxGeometry relative="1" as="geometry"/>
                </mxCell>
                <mxCell id="126" value="I2C" style="edgeLabel;html=1;align=center;verticalAlign=middle;resizable=0;points=[];fontSize=8;" vertex="1" connectable="0" parent="122">
                    <mxGeometry x="-0.9066" relative="1" as="geometry">
                        <mxPoint x="34" y="-33" as="offset"/>
                    </mxGeometry>
                </mxCell>
                <mxCell id="127" value="I2C" style="edgeLabel;html=1;align=center;verticalAlign=middle;resizable=0;points=[];fontSize=8;" vertex="1" connectable="0" parent="1">
                    <mxGeometry x="230" y="-579.9966666666667" as="geometry"/>
                </mxCell>
                <mxCell id="129" value="USB" style="edgeLabel;html=1;align=center;verticalAlign=middle;resizable=0;points=[];fontSize=8;" vertex="1" connectable="0" parent="1">
                    <mxGeometry x="230" y="-389.9966666666666" as="geometry">
                        <mxPoint y="-3" as="offset"/>
                    </mxGeometry>
                </mxCell>
                <mxCell id="130" value="" style="rounded=0;whiteSpace=wrap;html=1;fillStyle=auto;fillColor=#e1d5e7;strokeColor=#9673a6;strokeWidth=2;perimeterSpacing=0;glass=0;shadow=0;" vertex="1" parent="1">
                    <mxGeometry x="80" y="-240" width="800" height="160" as="geometry"/>
                </mxCell>
                <mxCell id="163" style="edgeStyle=orthogonalEdgeStyle;rounded=0;html=1;exitX=0.75;exitY=1;exitDx=0;exitDy=0;entryX=0.33;entryY=1;entryDx=0;entryDy=0;strokeWidth=1;fontSize=14;endArrow=none;endFill=0;targetPerimeterSpacing=0;entryPerimeter=0;" edge="1" parent="1" source="131" target="148">
                    <mxGeometry relative="1" as="geometry">
                        <Array as="points">
                            <mxPoint x="250" y="-200"/>
                            <mxPoint x="420" y="-200"/>
                            <mxPoint x="420" y="-220"/>
                        </Array>
                    </mxGeometry>
                </mxCell>
                <mxCell id="166" style="edgeStyle=orthogonalEdgeStyle;rounded=0;html=1;exitX=0.5;exitY=1;exitDx=0;exitDy=0;entryX=0.33;entryY=1;entryDx=0;entryDy=0;strokeWidth=1;fontSize=14;endArrow=none;endFill=0;targetPerimeterSpacing=0;entryPerimeter=0;" edge="1" parent="1" source="131" target="171">
                    <mxGeometry relative="1" as="geometry">
                        <mxPoint x="620" y="-220" as="targetPoint"/>
                        <Array as="points">
                            <mxPoint x="210" y="-190"/>
                            <mxPoint x="600" y="-190"/>
                            <mxPoint x="600" y="-220"/>
                        </Array>
                    </mxGeometry>
                </mxCell>
                <mxCell id="168" style="edgeStyle=orthogonalEdgeStyle;rounded=0;html=1;exitX=0.25;exitY=1;exitDx=0;exitDy=0;entryX=0;entryY=0.5;entryDx=0;entryDy=0;entryPerimeter=0;strokeWidth=1;fontSize=14;endArrow=none;endFill=0;targetPerimeterSpacing=0;" edge="1" parent="1" source="131" target="134">
                    <mxGeometry relative="1" as="geometry"/>
                </mxCell>
                <mxCell id="131" value="Main Connector" style="rounded=0;whiteSpace=wrap;html=1;fillColor=#f8cecc;strokeColor=#b85450;fontSize=10;align=center;verticalAlign=bottom;" vertex="1" parent="1">
                    <mxGeometry x="130" y="-240" width="160" height="20" as="geometry"/>
                </mxCell>
                <mxCell id="170" style="edgeStyle=orthogonalEdgeStyle;rounded=0;html=1;exitX=1;exitY=0.25;exitDx=0;exitDy=0;exitPerimeter=0;entryX=0.67;entryY=1;entryDx=0;entryDy=0;strokeWidth=1;fontSize=14;endArrow=none;endFill=0;targetPerimeterSpacing=0;entryPerimeter=0;" edge="1" parent="1" source="134" target="148">
                    <mxGeometry relative="1" as="geometry"/>
                </mxCell>
                <mxCell id="173" style="edgeStyle=orthogonalEdgeStyle;rounded=0;html=1;exitX=1;exitY=0.5;exitDx=0;exitDy=0;exitPerimeter=0;entryX=0.67;entryY=1;entryDx=0;entryDy=0;entryPerimeter=0;strokeWidth=1;fontSize=14;endArrow=none;endFill=0;targetPerimeterSpacing=0;" edge="1" parent="1" source="134" target="171">
                    <mxGeometry relative="1" as="geometry"/>
                </mxCell>
                <mxCell id="174" style="edgeStyle=orthogonalEdgeStyle;rounded=0;html=1;exitX=1;exitY=0.75;exitDx=0;exitDy=0;exitPerimeter=0;entryX=0.5;entryY=1;entryDx=0;entryDy=0;entryPerimeter=0;strokeWidth=1;fontSize=14;endArrow=none;endFill=0;targetPerimeterSpacing=0;shape=link;width=1.5999999999999996;" edge="1" parent="1" source="134" target="172">
                    <mxGeometry relative="1" as="geometry"/>
                </mxCell>
                <mxCell id="178" value="5*" style="edgeLabel;html=1;align=center;verticalAlign=middle;resizable=0;points=[];fontSize=8;" vertex="1" connectable="0" parent="174">
                    <mxGeometry x="-0.9768" y="-2" relative="1" as="geometry">
                        <mxPoint x="3" y="-2" as="offset"/>
                    </mxGeometry>
                </mxCell>
                <mxCell id="134" value="Propeller 2" style="rounded=0;whiteSpace=wrap;html=1;fillColor=#dae8fc;strokeColor=#6c8ebf;verticalAlign=middle;fontStyle=1;points=[[0,0,0,0,0],[0,0.25,0,0,0],[0,0.5,0,0,0],[0,0.75,0,0,0],[0,1,0,0,0],[0.2,0,0,0,0],[0.25,1,0,0,0],[0.4,0,0,0,0],[0.5,1,0,0,0],[0.6,0,0,0,0],[0.75,1,0,0,0],[0.8,0,0,0,0],[1,0,0,0,0],[1,0.25,0,0,0],[1,0.5,0,0,0],[1,0.75,0,0,0],[1,1,0,0,0]];" vertex="1" parent="1">
                    <mxGeometry x="200" y="-180" width="80" height="80" as="geometry"/>
                </mxCell>
                <mxCell id="137" value="" style="rounded=0;whiteSpace=wrap;html=1;fillStyle=auto;fillColor=#e1d5e7;strokeColor=#9673a6;strokeWidth=2;perimeterSpacing=0;glass=0;shadow=0;" vertex="1" parent="1">
                    <mxGeometry x="360" y="-740" width="160" height="460" as="geometry"/>
                </mxCell>
                <mxCell id="138" value="Mainboard" style="text;html=1;strokeColor=none;fillColor=none;align=center;verticalAlign=bottom;whiteSpace=wrap;rounded=0;shadow=0;glass=0;sketch=0;fillStyle=hatch;strokeWidth=2;fontSize=14;fontStyle=1" vertex="1" parent="1">
                    <mxGeometry x="80" y="-780" width="260" height="40" as="geometry"/>
                </mxCell>
                <mxCell id="139" value="Video&lt;br&gt;Expansion Board" style="text;html=1;strokeColor=none;fillColor=none;align=center;verticalAlign=bottom;whiteSpace=wrap;rounded=0;shadow=0;glass=0;sketch=0;fillStyle=hatch;strokeWidth=2;fontSize=14;fontStyle=1" vertex="1" parent="1">
                    <mxGeometry x="360" y="-780" width="160" height="40" as="geometry"/>
                </mxCell>
                <mxCell id="141" value="ICON" style="edgeLabel;html=1;align=center;verticalAlign=middle;resizable=0;points=[];fontSize=8;" vertex="1" connectable="0" parent="1">
                    <mxGeometry x="190" y="-349.9966666666666" as="geometry">
                        <mxPoint y="-3" as="offset"/>
                    </mxGeometry>
                </mxCell>
                <mxCell id="143" style="edgeStyle=orthogonalEdgeStyle;rounded=0;html=1;exitX=0.5;exitY=1;exitDx=0;exitDy=0;exitPerimeter=0;entryX=0.33;entryY=0;entryDx=0;entryDy=0;entryPerimeter=0;strokeWidth=1;fontSize=14;endArrow=none;endFill=0;targetPerimeterSpacing=0;" edge="1" parent="1" source="87" target="111">
                    <mxGeometry relative="1" as="geometry"/>
                </mxCell>
                <mxCell id="144" style="edgeStyle=orthogonalEdgeStyle;rounded=0;html=1;exitX=0.25;exitY=1;exitDx=0;exitDy=0;exitPerimeter=0;entryX=0.17;entryY=0;entryDx=0;entryDy=0;entryPerimeter=0;strokeWidth=1;fontSize=14;endArrow=none;endFill=0;targetPerimeterSpacing=0;" edge="1" parent="1" source="87" target="111">
                    <mxGeometry relative="1" as="geometry"/>
                </mxCell>
                <mxCell id="145" value="I2S" style="edgeLabel;html=1;align=center;verticalAlign=middle;resizable=0;points=[];fontSize=8;" vertex="1" connectable="0" parent="1">
                    <mxGeometry x="160" y="-349.9966666666666" as="geometry">
                        <mxPoint y="-3" as="offset"/>
                    </mxGeometry>
                </mxCell>
                <mxCell id="146" value="HSTX" style="edgeLabel;html=1;align=center;verticalAlign=middle;resizable=0;points=[];fontSize=8;" vertex="1" connectable="0" parent="1">
                    <mxGeometry x="130" y="-349.9966666666666" as="geometry">
                        <mxPoint y="-3" as="offset"/>
                    </mxGeometry>
                </mxCell>
                <mxCell id="148" value="Video Connector" style="rounded=0;whiteSpace=wrap;html=1;fillColor=#f8cecc;strokeColor=#b85450;fontSize=10;align=center;verticalAlign=bottom;points=[[0,0,0,0,0],[0,0.25,0,0,0],[0,0.5,0,0,0],[0,0.75,0,0,0],[0,1,0,0,0],[0.25,0,0,0,0],[0.33,1,0,0,0],[0.5,0,0,0,0],[0.67,1,0,0,0],[0.75,0,0,0,0],[1,0,0,0,0],[1,0.25,0,0,0],[1,0.5,0,0,0],[1,0.75,0,0,0],[1,1,0,0,0]];" vertex="1" parent="1">
                    <mxGeometry x="380" y="-240" width="120" height="20" as="geometry"/>
                </mxCell>
                <mxCell id="152" style="edgeStyle=orthogonalEdgeStyle;rounded=0;html=1;exitX=0.5;exitY=1;exitDx=0;exitDy=0;entryX=0.5;entryY=0;entryDx=0;entryDy=0;fontSize=8;endArrow=none;endFill=0;targetPerimeterSpacing=0;strokeWidth=4;" edge="1" parent="1" source="137" target="148">
                    <mxGeometry relative="1" as="geometry">
                        <mxPoint x="220.0000000000001" y="-270" as="sourcePoint"/>
                        <mxPoint x="220.0000000000001" y="-230" as="targetPoint"/>
                        <Array as="points">
                            <mxPoint x="440" y="-260"/>
                            <mxPoint x="440" y="-260"/>
                        </Array>
                    </mxGeometry>
                </mxCell>
                <mxCell id="153" style="edgeStyle=orthogonalEdgeStyle;rounded=0;html=1;entryX=0.5;entryY=0;entryDx=0;entryDy=0;fontSize=8;endArrow=none;endFill=0;targetPerimeterSpacing=0;strokeWidth=4;exitX=0.5;exitY=1;exitDx=0;exitDy=0;exitPerimeter=0;" edge="1" parent="1" source="159">
                    <mxGeometry relative="1" as="geometry">
                        <mxPoint x="640" y="-270" as="sourcePoint"/>
                        <mxPoint x="620" y="-240" as="targetPoint"/>
                        <Array as="points"/>
                    </mxGeometry>
                </mxCell>
                <mxCell id="154" value="" style="rounded=0;whiteSpace=wrap;html=1;fillStyle=auto;fillColor=#e1d5e7;strokeColor=#9673a6;strokeWidth=2;perimeterSpacing=0;glass=0;shadow=0;" vertex="1" parent="1">
                    <mxGeometry x="540" y="-740" width="160" height="460" as="geometry"/>
                </mxCell>
                <mxCell id="155" value="" style="rounded=0;whiteSpace=wrap;html=1;fillStyle=auto;fillColor=#e1d5e7;strokeColor=#9673a6;strokeWidth=2;perimeterSpacing=0;glass=0;shadow=0;" vertex="1" parent="1">
                    <mxGeometry x="720" y="-740" width="160" height="460" as="geometry"/>
                </mxCell>
                <mxCell id="156" value="Audio&lt;br&gt;Expansion Board" style="text;html=1;strokeColor=none;fillColor=none;align=center;verticalAlign=bottom;whiteSpace=wrap;rounded=0;shadow=0;glass=0;sketch=0;fillStyle=hatch;strokeWidth=2;fontSize=14;fontStyle=1" vertex="1" parent="1">
                    <mxGeometry x="540" y="-780" width="160" height="40" as="geometry"/>
                </mxCell>
                <mxCell id="157" value="Generic&lt;br&gt;Expansion Board" style="text;html=1;strokeColor=none;fillColor=none;align=center;verticalAlign=bottom;whiteSpace=wrap;rounded=0;shadow=0;glass=0;sketch=0;fillStyle=hatch;strokeWidth=2;fontSize=14;fontStyle=1" vertex="1" parent="1">
                    <mxGeometry x="720" y="-780" width="160" height="40" as="geometry"/>
                </mxCell>
                <mxCell id="182" style="edgeStyle=orthogonalEdgeStyle;rounded=0;html=1;exitX=0.5;exitY=0;exitDx=0;exitDy=0;exitPerimeter=0;entryX=0.5;entryY=1;entryDx=0;entryDy=0;strokeWidth=1;fontSize=8;endArrow=none;endFill=0;targetPerimeterSpacing=0;" edge="1" parent="1" source="158" target="179">
                    <mxGeometry relative="1" as="geometry"/>
                </mxCell>
                <mxCell id="183" value="HSTX" style="edgeLabel;html=1;align=center;verticalAlign=middle;resizable=0;points=[];fontSize=8;" vertex="1" connectable="0" parent="182">
                    <mxGeometry x="0.9392" y="1" relative="1" as="geometry">
                        <mxPoint x="1" y="378" as="offset"/>
                    </mxGeometry>
                </mxCell>
                <mxCell id="158" value="Video Connector" style="rounded=0;whiteSpace=wrap;html=1;fillColor=#f8cecc;strokeColor=#b85450;fontSize=10;align=center;verticalAlign=bottom;points=[[0,0,0,0,0],[0,0.25,0,0,0],[0,0.5,0,0,0],[0,0.75,0,0,0],[0,1,0,0,0],[0.17,0,0,0,0],[0.25,1,0,0,0],[0.33,0,0,0,0],[0.5,0,0,0,0],[0.5,1,0,0,0],[0.67,0,0,0,0],[0.75,1,0,0,0],[0.83,0,0,0,0],[1,0,0,0,0],[1,0.25,0,0,0],[1,0.5,0,0,0],[1,0.75,0,0,0],[1,1,0,0,0]];" vertex="1" parent="1">
                    <mxGeometry x="360" y="-300" width="160" height="20" as="geometry"/>
                </mxCell>
                <mxCell id="159" value="Audio Connector" style="rounded=0;whiteSpace=wrap;html=1;fillColor=#f8cecc;strokeColor=#b85450;fontSize=10;align=center;verticalAlign=bottom;points=[[0,0,0,0,0],[0,0.25,0,0,0],[0,0.5,0,0,0],[0,0.75,0,0,0],[0,1,0,0,0],[0.17,0,0,0,0],[0.25,1,0,0,0],[0.33,0,0,0,0],[0.5,0,0,0,0],[0.5,1,0,0,0],[0.67,0,0,0,0],[0.75,1,0,0,0],[0.83,0,0,0,0],[1,0,0,0,0],[1,0.25,0,0,0],[1,0.5,0,0,0],[1,0.75,0,0,0],[1,1,0,0,0]];" vertex="1" parent="1">
                    <mxGeometry x="540" y="-300" width="160" height="20" as="geometry"/>
                </mxCell>
                <mxCell id="160" value="EXT Connector" style="rounded=0;whiteSpace=wrap;html=1;fillColor=#f8cecc;strokeColor=#b85450;fontSize=10;align=center;verticalAlign=bottom;points=[[0,0,0,0,0],[0,0.25,0,0,0],[0,0.5,0,0,0],[0,0.75,0,0,0],[0,1,0,0,0],[0.17,0,0,0,0],[0.25,1,0,0,0],[0.33,0,0,0,0],[0.5,0,0,0,0],[0.5,1,0,0,0],[0.67,0,0,0,0],[0.75,1,0,0,0],[0.83,0,0,0,0],[1,0,0,0,0],[1,0.25,0,0,0],[1,0.5,0,0,0],[1,0.75,0,0,0],[1,1,0,0,0]];" vertex="1" parent="1">
                    <mxGeometry x="720" y="-300" width="160" height="20" as="geometry"/>
                </mxCell>
                <mxCell id="161" style="edgeStyle=orthogonalEdgeStyle;rounded=0;html=1;entryX=0.5;entryY=0;entryDx=0;entryDy=0;fontSize=8;endArrow=none;endFill=0;targetPerimeterSpacing=0;strokeWidth=4;exitX=0.5;exitY=1;exitDx=0;exitDy=0;exitPerimeter=0;" edge="1" parent="1" source="160">
                    <mxGeometry relative="1" as="geometry">
                        <mxPoint x="650" y="-270" as="sourcePoint"/>
                        <mxPoint x="800" y="-240" as="targetPoint"/>
                        <Array as="points"/>
                    </mxGeometry>
                </mxCell>
                <mxCell id="162" value="Backplane" style="text;html=1;strokeColor=none;fillColor=none;align=center;verticalAlign=bottom;whiteSpace=wrap;rounded=0;shadow=0;glass=0;sketch=0;fillStyle=hatch;strokeWidth=2;fontSize=14;fontStyle=1;rotation=-90;" vertex="1" parent="1">
                    <mxGeometry x="-20" y="-180" width="160" height="40" as="geometry"/>
                </mxCell>
                <mxCell id="165" value="HSTX" style="edgeLabel;html=1;align=center;verticalAlign=middle;resizable=0;points=[];fontSize=8;" vertex="1" connectable="0" parent="1">
                    <mxGeometry x="420" y="-209.9966666666666" as="geometry">
                        <mxPoint y="-3" as="offset"/>
                    </mxGeometry>
                </mxCell>
                <mxCell id="167" value="I2S" style="edgeLabel;html=1;align=center;verticalAlign=middle;resizable=0;points=[];fontSize=8;" vertex="1" connectable="0" parent="1">
                    <mxGeometry x="620" y="-209.9966666666666" as="geometry">
                        <mxPoint x="-21" y="-1" as="offset"/>
                    </mxGeometry>
                </mxCell>
                <mxCell id="169" value="ICON" style="edgeLabel;html=1;align=center;verticalAlign=middle;resizable=0;points=[];fontSize=8;" vertex="1" connectable="0" parent="1">
                    <mxGeometry x="180" y="-139.9966666666666" as="geometry">
                        <mxPoint x="8" as="offset"/>
                    </mxGeometry>
                </mxCell>
                <mxCell id="171" value="Audio Connector" style="rounded=0;whiteSpace=wrap;html=1;fillColor=#f8cecc;strokeColor=#b85450;fontSize=10;align=center;verticalAlign=bottom;points=[[0,0,0,0,0],[0,0.25,0,0,0],[0,0.5,0,0,0],[0,0.75,0,0,0],[0,1,0,0,0],[0.25,0,0,0,0],[0.33,1,0,0,0],[0.5,0,0,0,0],[0.67,1,0,0,0],[0.75,0,0,0,0],[1,0,0,0,0],[1,0.25,0,0,0],[1,0.5,0,0,0],[1,0.75,0,0,0],[1,1,0,0,0]];" vertex="1" parent="1">
                    <mxGeometry x="560" y="-240" width="120" height="20" as="geometry"/>
                </mxCell>
                <mxCell id="172" value="5 * EXT Connector" style="rounded=0;whiteSpace=wrap;html=1;fillColor=#f8cecc;strokeColor=#b85450;fontSize=10;align=center;verticalAlign=bottom;points=[[0,0,0,0,0],[0,0.25,0,0,0],[0,0.5,0,0,0],[0,0.75,0,0,0],[0,1,0,0,0],[0.25,0,0,0,0],[0.5,0,0,0,0],[0.5,1,0,0,0],[0.75,0,0,0,0],[1,0,0,0,0],[1,0.25,0,0,0],[1,0.5,0,0,0],[1,0.75,0,0,0],[1,1,0,0,0]];" vertex="1" parent="1">
                    <mxGeometry x="740" y="-240" width="120" height="20" as="geometry"/>
                </mxCell>
                <mxCell id="175" value="MCON" style="edgeLabel;html=1;align=center;verticalAlign=middle;resizable=0;points=[];fontSize=8;" vertex="1" connectable="0" parent="1">
                    <mxGeometry x="460" y="-209.9966666666666" as="geometry">
                        <mxPoint x="4" y="-4" as="offset"/>
                    </mxGeometry>
                </mxCell>
                <mxCell id="176" value="MCON" style="edgeLabel;html=1;align=center;verticalAlign=middle;resizable=0;points=[];fontSize=8;" vertex="1" connectable="0" parent="1">
                    <mxGeometry x="640" y="-209.9966666666666" as="geometry">
                        <mxPoint x="4" y="-4" as="offset"/>
                    </mxGeometry>
                </mxCell>
                <mxCell id="177" value="MCON" style="edgeLabel;html=1;align=center;verticalAlign=middle;resizable=0;points=[];fontSize=8;" vertex="1" connectable="0" parent="1">
                    <mxGeometry x="800" y="-209.9966666666666" as="geometry">
                        <mxPoint x="4" y="-4" as="offset"/>
                    </mxGeometry>
                </mxCell>
                <mxCell id="179" value="HDMI" style="rounded=0;whiteSpace=wrap;html=1;fillColor=#f8cecc;strokeColor=#b85450;fontSize=10;align=center;verticalAlign=top;" vertex="1" parent="1">
                    <mxGeometry x="420" y="-740" width="40" height="40" as="geometry"/>
                </mxCell>
                <mxCell id="187" style="edgeStyle=orthogonalEdgeStyle;rounded=0;html=1;exitX=0.5;exitY=1;exitDx=0;exitDy=0;entryX=0.5;entryY=0;entryDx=0;entryDy=0;strokeWidth=1;fontSize=8;endArrow=none;endFill=0;targetPerimeterSpacing=0;" edge="1" parent="1" source="180" target="184">
                    <mxGeometry relative="1" as="geometry"/>
                </mxCell>
                <mxCell id="180" value="Audio&lt;br&gt;Jack" style="rounded=0;whiteSpace=wrap;html=1;fillColor=#f8cecc;strokeColor=#b85450;fontSize=10;align=center;verticalAlign=top;" vertex="1" parent="1">
                    <mxGeometry x="560" y="-740" width="40" height="40" as="geometry"/>
                </mxCell>
                <mxCell id="181" value="Audio&lt;br style=&quot;border-color: var(--border-color);&quot;&gt;Jack" style="rounded=0;whiteSpace=wrap;html=1;fillColor=#f8cecc;strokeColor=#b85450;fontSize=10;align=center;verticalAlign=top;" vertex="1" parent="1">
                    <mxGeometry x="640" y="-740" width="40" height="40" as="geometry"/>
                </mxCell>
                <mxCell id="188" style="edgeStyle=orthogonalEdgeStyle;rounded=0;html=1;exitX=0.5;exitY=1;exitDx=0;exitDy=0;entryX=0.5;entryY=0;entryDx=0;entryDy=0;entryPerimeter=0;strokeWidth=1;fontSize=8;endArrow=none;endFill=0;targetPerimeterSpacing=0;" edge="1" parent="1" source="184" target="159">
                    <mxGeometry relative="1" as="geometry"/>
                </mxCell>
                <mxCell id="184" value="I2S&lt;br&gt;DAC" style="rounded=0;whiteSpace=wrap;html=1;fillColor=#dae8fc;strokeColor=#6c8ebf;fontSize=10;" vertex="1" parent="1">
                    <mxGeometry x="560" y="-380" width="40" height="40" as="geometry"/>
                </mxCell>
                <mxCell id="186" style="edgeStyle=orthogonalEdgeStyle;rounded=0;html=1;exitX=0.5;exitY=0;exitDx=0;exitDy=0;entryX=0.5;entryY=1;entryDx=0;entryDy=0;strokeWidth=1;fontSize=8;endArrow=none;endFill=0;targetPerimeterSpacing=0;" edge="1" parent="1" source="185" target="181">
                    <mxGeometry relative="1" as="geometry"/>
                </mxCell>
                <mxCell id="189" style="edgeStyle=orthogonalEdgeStyle;rounded=0;html=1;exitX=0.5;exitY=1;exitDx=0;exitDy=0;strokeWidth=1;fontSize=8;endArrow=none;endFill=0;targetPerimeterSpacing=0;" edge="1" parent="1" source="185">
                    <mxGeometry relative="1" as="geometry">
                        <mxPoint x="620" y="-300" as="targetPoint"/>
                    </mxGeometry>
                </mxCell>
                <mxCell id="190" value="I2S" style="edgeLabel;html=1;align=center;verticalAlign=middle;resizable=0;points=[];fontSize=8;" vertex="1" connectable="0" parent="189">
                    <mxGeometry x="0.685" y="-1" relative="1" as="geometry">
                        <mxPoint x="1" y="3" as="offset"/>
                    </mxGeometry>
                </mxCell>
                <mxCell id="185" value="I2S&lt;br&gt;ADC" style="rounded=0;whiteSpace=wrap;html=1;fillColor=#dae8fc;strokeColor=#6c8ebf;fontSize=10;" vertex="1" parent="1">
                    <mxGeometry x="640" y="-380" width="40" height="40" as="geometry"/>
                </mxCell>
                <mxCell id="191" value="The sky is the limit!" style="text;html=1;strokeColor=none;fillColor=none;align=center;verticalAlign=middle;whiteSpace=wrap;rounded=0;shadow=0;glass=0;sketch=0;fillStyle=hatch;strokeWidth=2;fontSize=14;rotation=-45;fontStyle=2" vertex="1" parent="1">
                    <mxGeometry x="736.04" y="-557.5" width="127.93" height="95" as="geometry"/>
                </mxCell>
            </root>
        </mxGraphModel>
    </diagram>
</mxfile>